<?xml version="1.0" encoding="utf-8"?>
<!-- Generator: Adobe Illustrator 15.1.0, SVG Export Plug-In . SVG Version: 6.00 Build 0)  -->
<!DOCTYPE svg PUBLIC "-//W3C//DTD SVG 1.1//EN" "http://www.w3.org/Graphics/SVG/1.1/DTD/svg11.dtd">
<svg version="1.1" id="Layer_1" xmlns="http://www.w3.org/2000/svg" xmlns:xlink="http://www.w3.org/1999/xlink" x="0px" y="0px"
	 width="535.103px" height="460.659px" viewBox="153.857 58.453 535.103 460.659"
	 enable-background="new 153.857 58.453 535.103 460.659" xml:space="preserve">
<path fill="#FAF4E8" d="M347.612,410.805c-0.99-5.032-2.193-10.029-2.907-15.105c-0.663-4.713-0.833-9.511-1.14-14.277
	c-0.044-0.704,0.352-1.441,0.952-2.131c10.823,1.216,21.237,2.398,31.651,3.579c9.973,0.464,19.947,0.928,30.479,1.398
	c9.263-0.029,17.967-0.068,26.67-0.105c13.581-0.763,27.173-1.352,40.739-2.352c8.391-0.616,16.741-1.858,25.407-2.494
	c-0.064,5.215-0.428,10.103-0.791,14.99c-0.956,5.378-1.912,10.755-3.312,16.313c-3.588,0.718-6.732,1.253-10.161,1.75
	c-16.937,0.977-33.581,2.222-50.245,2.918c-9.48,0.396-18.998,0.058-28.492-0.232c-11.959-0.363-23.912-1.014-35.867-1.504
	c0,0.033,0.064,0.024-0.151-0.118c-4.444-0.495-8.673-0.848-12.896-1.176c0.007,0.023,0.05,0.005-0.154-0.146
	c-3.186-0.463-6.167-0.778-9.305-1.151C347.826,410.869,347.719,410.837,347.612,410.805z"/>
<path fill="#B6132F" d="M485.485,410.313c3.144-0.499,6.288-0.997,9.719-1.501c-1.352,5.78-2.73,11.653-4.707,17.32
	c-1.646,4.72-3.99,9.197-6.457,13.909c-3.294,0.447-6.158,0.764-9.313,1.075c-7.174,0.413-14.063,0.763-20.938,1.293
	c-2.711,0.208-5.391,0.818-8.157,1.287c-0.072,0.041-0.191-0.073-0.51-0.088c-14.866-0.021-29.416,0.023-43.963-0.068
	c-3.999-0.026-7.998-0.409-11.991-0.719c-6.636-0.516-13.265-1.103-19.865-1.666c0.031-0.005,0.028,0.059-0.123-0.141
	c-2.825-0.494-5.5-0.788-8.315-1.021c-0.35,0.094-0.551,0.07-0.861-0.181c-0.716-0.497-1.318-0.822-1.919-1.15
	c0,0-0.094-0.199-0.045-0.527c-0.339-0.872-0.728-1.419-1.116-1.964c0,0-0.088-0.234-0.075-0.603
	c-1.285-3.913-2.737-7.409-3.842-11.013c-1.515-4.941-2.765-9.963-3.872-14.946c2.993,0.191,5.728,0.379,8.463,0.566
	c0,0-0.043,0.018,0.119,0.183c4.421,0.456,8.681,0.747,12.941,1.038c0,0-0.064,0.008,0.099,0.179
	c11.13,0.89,22.088,1.921,33.068,2.245c12.289,0.361,24.599,0.08,36.9,0.075c1.137,0,2.276,0.021,3.408-0.06
	c11.167-0.79,22.335-1.563,33.497-2.428C480.262,411.206,482.868,410.687,485.485,410.313z"/>
<path fill="#B6122F" d="M354.331,321.905c0,0,0.067-0.285,0.335-0.458c0.938-1.765,1.608-3.356,2.439-5.088
	c0.64-1.477,1.116-2.814,1.593-4.178c0-0.021,0.04-0.047,0.263-0.056c0.649-1.07,1.075-2.133,1.501-3.194
	c0,0,0.026-0.231,0.245-0.419c0.303-0.527,0.386-0.869,0.475-1.229c0.004-0.016,0.022-0.045,0.242-0.053
	c0.664-1.021,1.109-2.034,1.554-3.049c0,0,0.13,0.101,0.261-0.021c0.434-0.872,0.736-1.62,1.069-2.513
	c0.03-0.146,0.142-0.42,0.332-0.446c0.419-0.421,0.65-0.814,0.886-1.229c0.006-0.02,0.046-0.036,0.196-0.098
	c0.212-0.255,0.272-0.45,0.344-0.772c0.01-0.126,0.113-0.358,0.307-0.425c0.462-0.643,0.729-1.217,1.085-1.973
	c0.524-0.846,0.959-1.512,1.673-2.161c9.367,0.427,18.456,0.836,27.729,1.417c2.546,0.257,4.907,0.343,7.455,0.604
	c12.546,0.233,24.904,0.298,37.261,0.331c0.352,0,0.705-0.346,1.348-0.536c9.238-0.4,18.184-0.771,27.127-1.207
	c2.492-0.121,4.238,0.537,5.539,2.902c2.084,3.792,4.586,7.36,6.912,11.023c0,0-0.094-0.016-0.078,0.192
	c0.453,0.885,0.893,1.561,1.33,2.236c0,0-0.094-0.024-0.076,0.209c1.662,4.19,3.307,8.146,4.822,12.305
	c-0.771,0.462-1.4,0.896-2.061,0.953c-7.479,0.648-14.953,1.408-22.445,1.807c-10.709,0.566-21.434,1.211-32.148,1.183
	c-13.822-0.038-27.648-0.593-41.462-1.143c-11.008-0.438-22.002-1.215-33.005-1.808C355.304,324.901,353.78,324.427,354.331,321.905
	z"/>
<path fill="#FAF4E8" d="M475.018,438.881c2.863-0.346,5.728-0.689,8.845-0.997c-1.777,4.333-3.672,8.713-5.885,12.896
	c-1.82,3.443-4.111,6.591-6.022,9.98c-1.697,3.014-3.999,4.436-7.27,4.266c-0.938-0.048-1.9,0.423-3.239,0.408
	c-26.408,2.717-52.426,2.5-78.444-0.28c-2.566-0.133-5.227,0.132-7.662-0.548c-1.454-0.405-2.896-2.061-3.755-3.549
	c-4.18-7.247-8.163-14.629-12.254-22.333c0.238-0.604,0.512-0.844,0.788-1.08c0.195,0.088,0.396,0.113,0.943,0.191
	c2.982,0.458,5.625,0.8,8.269,1.145c0,0,0.003-0.07,0.176,0.084c5.685,0.906,11.18,2.078,16.712,2.335
	c14.818,0.686,29.651,1.116,44.48,1.351c4.907,0.077,9.826-0.745,14.74-1.157c0,0,0.119,0.126,0.484,0.133
	C455.866,440.781,465.442,439.832,475.018,438.881z"/>
<path fill="#F9F3E7" d="M396.698,298.823c-9.089-0.449-18.178-0.898-27.573-1.551c-0.346-0.323-0.386-0.439-0.427-0.556
	c5.125-6.682,10.108-13.5,15.424-20.002c3.842-4.7,5-4.688,10.168-2.19c18.319,8.854,36.646,8.447,54.857-0.271
	c3.096-1.483,5.606-1.815,7.937,1.126c5.687,7.171,11.365,14.35,16.833,21.841c-9.156,0.717-18.099,1.203-27.044,1.491
	c-6.787,0.221-13.579,0.188-20.658,0.232c-3.412-0.014-6.537,0.012-9.945-0.037C409.557,298.829,403.128,298.827,396.698,298.823z"
	/>
<path fill="#FBF4E9" d="M353.82,323.155c8.957,0.452,17.902,1.497,26.868,1.86c17.447,0.708,34.917,1.722,52.357,1.33
	c18.774-0.422,37.524-2.312,56.547-3.523c0.962,3.607,1.63,7.189,2.372,10.748c1.263,6.056,2.564,12.101,3.867,18.145
	c0.442,2.051,0.131,3.323-1.956,3.439c-3.251,0.183-6.497,0.512-9.742,0.817c-7.522,0.711-15.035,1.687-22.568,2.106
	c-9.176,0.509-18.371,0.531-27.557,0.813c-6.393,0.197-12.786,0.745-19.175,0.652c-7.792-0.111-15.58-0.691-23.368-1.135
	c-9.633-0.547-19.266-1.094-28.892-1.78c-4.304-0.307-8.594-0.914-12.883-1.468c-1.962-0.253-2.96-1.307-2.323-3.97
	C349.577,341.96,351.676,332.693,353.82,323.155z"/>
<path fill="#0B3A60" d="M359.317,219.692c1.171-2.326,2.367-4.799,2.535-7.443c0.247-3.883-1.91-4.341-5.103-5.527
	c-6.238-2.315-12.335-4.551-18.199-7.736c-9.823-5.335-19.896-12.181-27.562-20.376c-14.479-15.478-29.165-31.497-49.082-40.142
	c-3.864-1.677-7.189-4.742-5.649-9.367c1.291-3.876,5.857-5.583,9.636-5.009c10.859,1.648,21.637,10.671,29.679,17.65
	c18.104,15.712,33.247,34.305,54.422,45.991c4.403,2.43,8.849,4.801,13.746,6.075c4.174,1.085,5.555,0.058,7.891-3.433
	c1.576-2.355,4.44-5.012,1.842-7.513c-3.139-3.021-3.777-7.406-5.529-11.244c-3.737-8.188-4.021-18.975-1.113-27.503
	c1.625-4.767,4.821-8.411,8.027-12.18c1.922-2.261,3.713-6.156,6.734-7.125c-5.475-10.637-12.991-20.209-21.444-28.636
	c-8.473-8.446-18.142-16.491-29.175-21.322c-2.607-1.142-5.249-2.23-7.735-3.624c-2.536-1.42-2.807-2.233-2.625-5.074
	c0.094-1.476-0.197-4.57,0.746-5.785c1.632-2.103,4.747-2.193,7.057-1.597c4.115,1.061,9.144,1.893,12.854,3.942
	c4.639,2.563,8.957,5.693,13.311,8.689c3.45,2.373,6.556,4.676,9.82,7.267c1.763,1.399,3.209,3.436,4.718,5.117
	c2.067,2.305,4.582,4.108,6.537,6.483c2.753,3.343,5.81,6.356,8.587,9.657c0.989,1.175,1.39,2.639,2.298,3.75
	c1.166,1.427,3.429,3.228,3.621,5.188c1.139,1.989,2.317,3.865,3.292,5.933c0.811,1.721,2.724,0.971,4.332,0.601
	c6.311-1.454,12.146-3.354,18.704-3.763c6.214-0.387,12.469,0.055,18.575,1.269c2.813,0.559,11.357,4.54,13.745,1.936
	c2.919-3.184,5.001-7.713,7.497-11.245c3.567-5.048,7.702-9.636,11.75-14.289c2.866-3.295,6.233-6.317,9.631-9.073
	c4.108-3.334,7.953-7.514,12.545-10.139c4.665-2.666,8.996-5.658,13.803-8.196c4.516-2.385,11.094-5.288,15.73-1.905
	c2.579,1.882,3.406,6.008,2.012,8.827c-0.895,1.808-2.381,2.16-4.107,2.863c-2.744,1.116-5.363,2.907-7.756,4.615
	c-3.873,2.765-8.676,3.909-12.067,7.112c-4.727,4.461-10.129,8.125-14.803,12.684c-4.232,4.129-8.143,8.583-11.729,13.282
	c-1.785,2.338-3.49,4.737-5.118,7.187c-1.517,2.284-4.293,5.401-4.899,8.098c-0.553,2.459,4.616,3.619,5.85,5.088
	c2.331,2.775,4.044,6.237,6.153,9.093c1.327,1.797,1.612,4.599,2.34,6.819c0.942,2.881,1.635,5.85,1.977,8.864
	c0.708,6.259-0.69,11.576-2.427,17.497c-0.57,1.946-0.913,4.806-2.266,6.392c-1.696,1.99-4.738,4.634-4.492,7.548
	c0.212,2.504,3.833,4.443,5.24,6.391c1.2,1.663,0.844,2.241,3.375,2.114c1.993-0.1,3.847-0.886,5.588-1.803
	c7.531-3.962,14.801-8.295,22.301-12.293c8.488-4.524,15.405-11.956,22.321-18.519c5.288-5.018,10.043-11.262,15.769-15.574
	c5.19-3.908,9.763-8.625,14.896-12.61c2.95-2.29,6.734-3.854,9.942-5.885c4.196-2.655,8.846-3.542,13.825-3.292
	c6.147,0.308,3.981,10.591,3.978,10.649c-0.75,0.531-6.358,3.218-7.706,3.838c-4.806,2.209-8.97,5.593-13.307,8.63
	c-4.883,3.42-9.31,7.195-13.641,11.285c-4.256,4.018-7.736,9.047-12.239,12.713c-4.107,3.345-6.971,7.735-10.914,11.207
	c-4.279,3.767-8.514,7.77-13.434,10.694c-4.938,2.936-10.615,5.293-15.826,7.766c-4.814,2.284-10.312,3.245-14.979,5.651
	c-3.903,2.011-1.83,7.044-1.17,10.406c0.93,4.74,7.383,0.536,10.204-0.469c11.995-4.272,23.796-8.859,35.695-13.392
	c24.635-9.384,49.141-20.29,74.994-25.908c13.188-2.866,26.178-4.099,39.649-3.473c6.221,0.289,11.719,1.291,17.767,2.699
	c2.482,0.579,4.836,0.77,7.123,1.986c2.458,1.307,4.947,3.199,7.522,4.282c2.125,0.939,4.942,4.375,5.902,5.536
	c2.384,2.882,4.747,4.938,5.942,8.653c3.406,10.584,1.583,22.878-4.165,32.326c-2.842,4.67-6.227,8.661-9.378,13.065
	c-0.987,1.379-2.307,2.715-3.479,3.972c-2.609,2.432-4.284,4.11-6.813,6.625c-1.217,1.21-1.769,1.58-3.469,3.75
	c-0.993,0.871-2.568,2.175-3.625,2.969c-2.363,1.773-3.835,2.956-6.357,4.486c-5.249,3.184-9.723,7.75-15.063,10.679
	c-10.75,5.897-21.939,10.764-33.801,14.005c-12.919,3.531-25.402,4.207-38.739,3.887c-9.946-0.239-19.563-2.11-29.119-4.798
	c-4.488-1.263-8.939-2.65-13.399-4.006c-1.362-1.004-7.659-4.381-8.078-1.551c0.475,0.885,1.656,1.003,2.273,1.748
	c0.712,0.856,1.119,1.91,1.844,2.757c0.833,0.109,2.063,2.507,2.483,3.137c2.487,3.731,6.372,6.714,8.506,10.606
	c2.697,4.918,7.109,8.845,10.893,12.924c4.498,4.851,8.791,9.768,13.591,14.331c6.068,5.767,13.808,10.825,21.447,14.373
	c11.775,5.467,24.701,5.632,37.378,5.786c4.766,0.058,4.917,2.438,5.388,6.649c0.18,1.611,0.372,3.539-0.939,4.762
	c-0.813,0.757-1.916,0.94-2.835,1.524c-2.233,1.419-2.072,0.915-4.551,0.906c-12.997-0.051-24.782-0.568-37.022-5.527
	c-22.959-9.302-41.419-26.849-55.611-46.811c-5.41-7.609-9.456-16.046-14.525-23.87c-3.408-5.259-6.089-10.115-11.033-14.108
	c-4.401-3.554-7.628-8.218-12.031-11.811c-1.046-0.854-3.917-4.046-4.821-2.939c-0.24,0.293-0.536,0.966-0.794,1.425
	c-1.721,3.071-5.228,4.794-7.792,7.049c3.207,1.89,5.979,5.596,8.417,8.352c2.813,3.181,5.08,6.878,7.668,10.237
	c3.803,4.937,7.104,9.922,9.631,15.639c1.256,2.841,2.412,5.725,3.715,8.544c0.762,1.65,2.33,2.899,2.901,4.652
	c1.467,4.507,2.961,6.073,7.177,7.859c1.571,0.665,2.608,1.774,3.932,2.831c2.275,1.818,4.896,2.764,7.002,4.818
	c8.207,8.012,12.787,20.007,15.796,30.814c3.319,11.925,4.874,24.191,7.663,36.229c1.32,5.697,2.9,11.583,5.678,16.765
	c2.216,4.134,7.381,12.125,10.381,14.042c1.458,1.667,2.788,2.997,4.052,4.343c1.883,2.006,3.794,3.841,6.03,5.458
	c4.902,3.545,10.269,6.851,15.905,9.071c5.717,2.252,26.556,5.256,18.069,15.928c-2.827,3.556-7.557,2.459-11.368,1.578
	c-5.763-1.334-11.023-3.124-16.301-5.832c-5.439-2.792-11.593-5.102-16.326-9.031c-4.577-3.799-8.555-8.403-12.157-13.113
	c-3.825-5-6.446-10.241-9.322-15.82c-1.282-2.487-2.193-4.285-3.082-6.93c-1.118-3.324-2.101-6.686-3.085-10.053
	c-1.867-6.384-3.959-12.854-4.976-19.44c-0.456-2.957-0.737-5.938-1.163-8.899c-0.212-1.475-0.46-2.944-0.784-4.398
	c-0.242-1.087-0.523-3.194-1.367-6.007c-1.285-4.552-1.985-6.924-4.191-11.197c-2.133-4.13-5.353-7.549-7.731-11.522
	c-2.197,3.235-0.49,8.636,0.2,12.1c1.176,5.9,1.465,12.025,1.574,18.028c0.246,13.573-1.61,26.963-3.925,40.306
	c-0.538,3.101-1.115,6.191-1.741,9.275c-0.494,2.437-0.635,6.108-1.972,8.265c-2.387,3.85-3.521,7.779-4.979,12.163
	c-1.651,4.966-5.673,8.544-7.814,13.528c-2.157,5.021-5.414,9.118-8.345,13.706c-3.395,5.313-7.473,10.741-12.079,15.023
	c-4.409,4.101-8.727,8.371-12.679,12.918c-3.63,4.174-8.195,7.487-12.7,10.709c-1.985,1.421-3.711,2.729-5.68,4.167
	c-1.75,1.278-3.625,2.938-5.116,3.999c-2.368,1.686-4.98,2.998-7.503,4.441c-2.003-0.183-4.313-0.384-6.092-1.417
	c-2.849-1.654-5.477-3.424-7.866-5.679c-1.729-1.632-3.523-3.343-5.669-4.419c-0.831-0.416-1.485-0.924-2.222-1.488
	c-0.902-0.69-1.844-1.375-2.82-1.992c-5.063-3.201-8.691-7.684-12.961-11.445c-2.36-2.08-4.112-5.021-6.5-7.189
	c-2.48-2.252-5.096-5.242-7.232-7.995c-4.758-6.131-9.572-11.961-13.595-18.615c-4.382-7.246-7.707-14.131-10.29-22.193
	c-1.128-3.521-2.135-7.097-3.64-10.482c-0.692-1.559-1.274-2.993-1.837-4.618c-0.557-1.61-0.986-3.297-1.339-4.938
	c-1.846-8.573-3.972-16.773-4.775-25.567c-0.754-8.262-0.901-16.58-0.337-24.858c0.581-8.538,3.022-17.381,2.095-25.94
	c-7.91,7.622-12.139,20.518-14.275,30.996c-1.152,5.655-1.141,11.49-2.748,17.043c-1.716,5.928-3.666,11.788-5.387,17.721
	c-3.404,11.735-7.98,22.679-16.152,31.935c-3.694,4.184-7.74,7.591-12.355,10.701c-4.782,3.223-8.467,6.809-13.985,8.872
	c-5.017,1.876-10.263,3.032-15.431,4.401c-3.677,0.975-8.881,2.869-12.099-0.257c-2.71-2.632-2.91-9.662,1.014-11.353
	c5.088-2.189,11.011-2.114,16.174-4.507c21.55-9.988,38.417-29.069,43.313-52.568c4.497-21.585,6.893-48.031,22.982-64.606
	c2.594-2.673,6.051-5.132,9.203-7.103c1.425-0.892,2.792-1.276,4.281-1.942c2.459-1.099,3.164-2.498,4.24-4.89
	c5.18-11.515,10.648-22.933,18.021-33.242c3.444-4.815,7.92-8.719,11.504-13.412c1.036-1.356,3.269-2.953,1.545-4.522
	c-2.286-2.081-4.807-5.332-7.554-6.752c-0.981-0.507-8.656,6.931-9.576,8.015c-2.485,2.932-5.301,5.412-7.678,8.422
	c-7.466,9.458-13.785,19.575-20.06,29.838c-6.567,10.739-15.192,20.746-24.241,29.49c-6.881,6.65-14.736,12.166-22.493,17.727
	c-7.803,5.595-18.977,8.869-28.325,10.655c-5.232,1.001-10.57,1.435-15.896,1.279c-3.307-0.097-13.043,0.024-14.412-3.697
	c-0.994-2.7-1.112-6.985,1.069-9.16c2.279-2.273,6.208-1.691,9.083-1.38c21.102,2.284,39.683-7.825,54.989-21.447
	c7.905-7.036,14.965-14.783,21.404-23.173c3.067-3.996,5.981-8.175,9.251-12.008c2.527-2.962,6.446-6.024,7.306-10.015
	c-2.563,0.161-4.623,1.983-6.883,2.969c-2.411,1.052-5.055,1.398-7.484,2.397c-5.37,2.208-11.424,3.205-17.164,4.254
	c-12.973,2.371-26.229,3.102-39.341,1.509c-13.223-1.605-25.618-5.707-37.964-10.541c-1.96-0.768-8.615-2.457-9.676-4.705
	c-3.916-2.283-7.417-4.886-11.476-6.996c-10.369-5.387-17.797-14.806-26.028-22.748c-2.651-2.558-5.575-4.852-7.843-7.784
	c-0.846-1.093-1.192-2.192-2.135-3.211c-1.273-1.375-3.413-3.257-3.585-5.26c-5.225-9.278-9.119-20.33-6.22-31.084
	c1.136-4.214,2.95-7.995,5.886-11.066c0.822-0.86,1.546-1.677,2.421-2.552c1.042-0.917,1.936-1.527,2.979-2.271
	c1.222-0.85,1.832-1.229,3.131-2.13c3.056-2.12,7.086-2.659,10.561-3.803c3.852-1.269,7.734-2.518,11.755-3.131
	c8.363-1.275,17.074-1.314,25.503-0.837c17.143,0.971,33.79,6.298,50.039,11.614c16.601,5.431,32.648,12.278,49.098,18.107
	c7.816,2.77,15.613,5.453,23.17,8.886c3.615,1.642,7.156,2.638,10.949,3.712C352.323,217.223,357.247,220.444,359.317,219.692
	 M283.791,263.963c-1.356,0.849-2.977,2.272-3.573,3.799c-1.005,1.686-3.342,2.153-4.057,4.082c-1.166,1.994-3.626,3.319-5.138,5.06
	c-2.585,2.977,1.184,2.761,3.429,2.607c5.984-0.409,11.98-0.699,17.94-1.389c18.123-2.099,34.931-10.564,49.722-20.588
	c3.844-2.605,7.238-5.473,10.898-8.199c1.318-0.982,2.665-2.47,4.073-3.264c1.166-0.657,2.569-2.553,4.082-2.563
	c4.223-3.256-4.254-5.545-6.502-5.369c-5.941,0.466-11.903,0.582-17.85,0.975c-5.523,0.365-11.054,0.961-16.441,2.275
	c-4.246,1.036-7.708,3.485-11.829,4.752c-4.075,1.252-8.207,4.756-11.607,7.21C292.368,256.649,288.063,260.291,283.791,263.963
	 M276.919,219.964c2.376,1.101,4.396,3.292,6.606,4.717c2.692,1.735,5.754,3.091,8.723,4.28c6.924,2.772,13.204,3.494,20.609,3.608
	c6.709,0.104,13.167-0.003,19.855-0.473c1.833-0.129,9.506,0.351,10.344-1.721c-4.947-2.624-10.33-3.962-15.36-6.414
	c-0.539-0.263-9.905-3.676-9.9-3.733c-10.694-3.975-21.178-8.483-31.762-12.74c-5.199-2.091-10.354-4.278-15.607-6.235
	c-2.146-0.799-8.115-4.387-10.55-2.551c-1.13,0.852,7.157,9.936,8.05,11.074c1.597,2.036,3.106,3.888,4.822,5.804
	C273.97,216.945,276.257,218.195,276.919,219.964 M171.383,198.594c-1.61,1.638-3.105,3.669-3.691,6.091
	c-0.61,2.522-0.257,5.204,0.313,7.698c1.324,5.786,5.262,10.625,9.014,15.049c3.774,4.451,7.445,10.152,11.9,13.904
	c2.715,2.287,9.293-1.787,11.61-3.481c1.672-1.223,3.313-2.582,5.308-3.247c2.275-0.758,4.706-0.708,7.007-1.53
	c5.789-2.068,11.234-4.832,17.121-6.705c9.597-3.054,19.003-3.745,28.95-3.854c1.219-0.014,6.327,0.241,6.436-1.768
	c0.083-1.535-2.508-3.617-3.37-4.697c-1.681-2.105-3.601-3.996-5.274-6.099c-3.249-4.083-6.207-9-9.046-13.449
	c-1.005-1.575-0.932-3.012-3.026-3.649c-2.592-0.789-5.285-1.369-7.927-1.957c-6.668-1.482-13.444-2.486-20.26-2.951
	c-12.8-0.872-25.826,0.159-37.708,5.321C175.938,194.489,171.383,198.594,171.383,198.594z M562.99,256.025
	c2.019,3.321,6.293,4.997,7.949,8.372c1.954,1.629,3.303,3.073,4.954,4.856c2.335,2.521,4.596,6.324,7.605,7.993
	c3.337,1.85,7.762,0.129,11.153-0.71c9.303-2.303,18.255-5.92,26.677-10.478c3.824-2.069,6.916-5.159,10.482-7.603
	c4.48-3.071,8.961-6.141,13.441-9.211c-15.094-10.338-32.563-17.102-50.759-19.202c-9.457-1.091-19.204-1.714-28.534,0.617
	c-4.455,1.114-8.715,2.886-12.923,4.699c-4.188,1.805-9.009,3.036-12.733,5.729c4.967,1.215,10.359,4.438,14.208,7.717
	C556.577,250.565,562.311,253.3,562.99,256.025 M496.127,254.198c2.116,0.454,3.448,2.573,5.33,3.498
	c1.823,0.98,3.358,2.387,5.116,3.475c4.625,2.864,9.627,6.098,14.677,8.326c7.916,3.493,15.77,5.586,24.107,7.37
	c5.661,1.211,11.459,2.381,17.316,2.563c2.889,0.089,5.881,0.376,8.767,0.228c3.917-0.202,0.001-3.216-1.167-4.438
	c-3.587-3.752-6.717-7.797-10.903-10.915c-1.27-0.946-1.944-2.347-3.186-3.168c-1.619-1.07-3.277-2.097-4.799-3.304
	c-1.907-1.512-2.915-3.438-5.114-4.877c-3.286-2.15-6.914-3.784-10.392-5.59c-4.787-2.486-9.388-5.035-14.72-6.113
	c-5.907-1.195-11.543-1.308-17.486-1.854c-6.073-0.559-14.385-2.264-20.326,0.26c-5.883,2.498,9.417,10.379,10.991,13.001
	C494.719,253.293,495.91,253.358,496.127,254.198 M203.588,253.393c3.178,3.273,7.786,5.155,11.446,7.833
	c3.601,2.635,8.096,5.653,12.434,7.093c3.882,1.288,6.188,3.941,10.082,5.18c5.796,1.845,11.751,3.264,17.731,4.354
	c5.283,0.963,6.896-4.082,9.938-7.452c1.261-1.397,2.499-2.949,4.001-4.098c1.458-1.115,2.206-3.804,4.272-4.252
	c1.392-2.138,3.791-3.561,5.353-5.623c1.765-2.331,4.531-3.88,6.974-5.391c4.986-3.082,11.023-6.471,14.58-11.22
	c-4.666-1.243-9.061-3.302-13.603-4.906c-4.822-1.703-9.331-4.258-14.439-4.995c-11.423-1.646-23.124-0.613-34.37,1.753
	c-11.143,2.345-20.638,7.287-30.979,11.75c-2.464,1.063-5.108,1.958-7.272,3.59C196.21,249.673,201.807,251.646,203.588,253.393
	 M663.321,231.328c2.87-2.01,3.579-5.868,6.14-8.258c3.87-3.611,6.988-12.492,6.01-17.435c-1.346-6.796-9.048-10.167-14.499-12.786
	c-7.753-3.725-16.513-5.283-25.061-5.505c-8.388-0.218-16.785,0.798-24.99,2.489c-3.953,0.814-8.426,1.474-12.142,3.09
	c-3.286,1.429-3.314,4.462-5.082,7.083c-2.692,3.99-5.445,8.515-8.58,12.166c-1.147,1.337-2.759,1.684-3.975,3.066
	c-1.607,1.827-2.992,3.876-4.273,5.941c4.028,1.928,8.747,1.451,13.072,1.808c5.583,0.461,11.173,0.865,16.754,1.349
	c8.009,0.694,15.352,4.594,22.683,7.606c2.377,0.977,4.748,1.966,7.129,2.932c1.455,0.591,3.262,0.672,4.52,1.689
	c2.194,1.774,4.857,3.172,7.391,4.384c3.01,1.44,5.141,2.215,7.26-1.014C657.794,236.708,662.027,235.285,663.321,231.328
	 M364.32,308.641c-0.284,0.916-1.023,1.99-1.432,2.841c-0.79,1.645-1.642,3.231-2.322,4.926c-0.56,1.394-1.123,2.787-1.674,4.186
	c-0.478,1.211-1.27,1.703-1.742,2.857c-1.235,3.016-1.279,6.438-2.325,9.519c-1.605,4.729-3.992,9.383-4.375,14.607
	c-0.32,4.354,0.892,5.271,4.91,5.859c3.491,0.511,7.024,0.53,10.541,0.688c12.542,0.564,24.997,1.955,37.571,2.12
	c13.719,0.18,27.449-0.14,41.167-0.351c5.294-0.082,10.604,0.027,15.893-0.098c2.041-0.048,5.382-0.709,7.289-0.781
	c3.12-0.116,6.248-0.448,9.375-0.625c4.61-0.262,8.165-0.494,12.675-1.68c5.868-1.542,1.808-9.561,0.75-13.407
	c-1.6-5.815-2.659-12.356-5.676-17.613c-2.774-4.836-5.061-10-7.4-15.063c-2.987-6.465-7.529-12.06-12.104-17.432
	c-2.35-2.758-4.822-5.452-7.047-8.313c-1.576-2.027-3.094-4.574-5.509-5.706c-2.773-1.3-5.928,0.8-8.449,1.793
	c-3.352,1.32-6.806,2.381-10.326,3.148c-7.52,1.638-15.339,1.908-22.929,0.58c-3.506-0.614-6.886-1.663-10.216-2.908
	c-2.79-1.043-6.244-3.196-9.279-3.122c-4.861,0.119-9.357,8.084-12.061,11.332c-3.313,3.979-6.893,7.805-9.926,12.006
	c-1.135,1.572-2.343,3.281-2.917,5.156c-0.191,0.626-0.586,1.353-0.815,1.956c-0.417,0.708-1.083,1.854-1.479,3.167L364.32,308.641z
	 M567.303,219.114c1.511-3.475,4.837-5.811,7.311-8.55c3.22-3.566,5.854-7.791,8.355-11.877c-5,1.264-9.963,2.684-14.85,4.335
	c-2.23,0.753-4.444,1.554-6.563,2.588c-1.728,0.844-4.087,3.141-6.094,3.081c-1.945-0.058-3.874,1.569-5.949,2.3
	c-1.711,0.603-3.235,0.984-4.988,1.692c-2.413,0.974-4.847,1.895-7.262,2.861c-3.926,1.571-7.114,4.35-11.36,4.932
	c-4.37,0.6-8.534,2.907-12.593,4.516c-3.995,1.583-8.661,2.264-12.021,5.132c4.617,3.484,11.02,0.216,15.884,2.706
	c6.925,0.168,13.853,0.337,20.745-0.492c5.655-0.68,11.814-1.728,16.727-4.787c2.143-1.333,4.737-2.286,6.521-3.941
	C562.905,221.997,564.888,219.67,567.303,219.114 M385.606,462.712c1.564,1.288,4.169,0.973,6.045,1.028
	c2.946,0.089,5.901,0.539,8.84,0.771c7.064,0.558,14.142,0.496,21.222,0.362c6.67-0.126,13.339-0.325,20.007-0.548
	c3.105-0.104,6.232-0.062,9.329-0.338c3.257-0.291,6.335-1.531,9.587-1.792c4.889-0.392,7.07-1.876,9.713-6.076
	c3.148-5.005,6.267-9.932,8.871-15.254c5.543-11.325,9.343-23.302,12.33-35.528c1.428-5.846,2.505-11.667,3.473-17.599
	c0.346-2.117,0.704-4.658-0.837-6.424c-3.655,0.393-7.305,0.838-10.957,1.256c-13.649,1.564-27.366,2.214-41.091,2.684
	c-13.69,0.468-27.386,0.846-41.083,0.376c-13.396-0.46-26.634-2.373-39.974-3.519c-3.409-0.292-7.949-1.294-11.313-0.399
	c-2.504,0.667-0.8,7.811-0.651,9.479c0.928,10.374,3.804,20.535,6.817,30.47c3.033,10.002,7.766,18.633,13.094,27.574
	c2.134,3.581,4.173,8.799,7.688,11.25C379.257,462.257,382.69,462.082,385.606,462.712c-0.19-0.156-0.829,0.002-1.078-0.203
	C384.892,462.547,385.252,462.615,385.606,462.712C387.161,463.992,383.072,462.165,385.606,462.712z"/>
</svg>
